<svg width="690" height="234" viewBox="0 0 690 234" fill="none" xmlns="http://www.w3.org/2000/svg">
<path fill-rule="evenodd" clip-rule="evenodd" d="M226.5 181.5L286 181L288.5 111H306.5L305.5 181.5L365 182L364 12.5H235.5L226.5 181.5ZM289 44V77H308.5V44H289Z" fill="url(#paint0_linear_1_17)"/>
<path d="M94.5 128.5L88.5 180.5H28.5L33.5 146H13.9357L33.5 12.5H88.5L79.5 94H97L101 60H139L137.5 94H155L162 12.5H217.5L209 146H189.5L187.5 181H128L132 128.5H94.5Z" fill="url(#paint1_linear_1_17)"/>
<path d="M53 221.5L28.5 180.5H88.5L108 221.5H53Z" fill="#1B1C20"/>
<path d="M144.5 222L128 181H188.5L199.5 222H144.5Z" fill="#1B1C20"/>
<path d="M308.5 221.5L305.5 181.5L365 182L363.5 221.5H308.5Z" fill="#1B1C20"/>
<path d="M376.635 222L380 182H440L433 222H376.635Z" fill="#1B1C20"/>
<path d="M449.5 221.5L458 182H518L505.5 221.5H449.5Z" fill="#1B1C20"/>
<path d="M523.5 221.5L537.5 181.5H597L578 221.5H523.5Z" fill="#1B1C20"/>
<path d="M597 221.5L615.5 181.5H676L651 221.5H597Z" fill="#1B1C20"/>
<path d="M236 221.5L226.5 181.5L286 181L290.5 221.5H236Z" fill="#1B1C20"/>
<path d="M380 182H439L437.5 128.5H455.5L459 182H518L512 94H473.5V77.5L510.5 77L506 12.5H451L453 61.5H434.5L433 12.5H377.5L378.5 77H416.5V94H378.5L380 182Z" fill="url(#paint2_linear_1_17)"/>
<path d="M537.5 181.5H597L591.5 128.5H610.5L615.5 181.5H676L663.5 94H626L624 78.5H661L652 13.5H597.5L602.5 61.5H584.5L579 12.5H524L530 78.5H566.5L568 94H530L537.5 181.5Z" fill="url(#paint3_linear_1_17)"/>
<path d="M289 77V44H308.5V77H289Z" fill="black"/>
<path fill-rule="evenodd" clip-rule="evenodd" d="M209 233.5L210.5 199H218.5L227.5 233.5H659L690 187.5L662.5 0H230.5H152.5L147.5 48H114L97 0H23.5L0 151L16 176L15 187L44.5 234L117 233.5L120 199L135.5 233.5H209ZM88.5 180.5L108 221.5H53L28.5 180.5L33.5 146H14L33.5 12.5H88.5L79.5 94H97L101 60H139L137.5 94H155L162 12.5H217.5L209 146H189.5L187.5 180.5L199 221.5H144.5L128 180.5L132 128.5H94.5L88.5 180.5ZM226.5 181.5L236 221.5H290.5L286 181.5L288.5 111H306.5L305.5 181.5L308.5 221.5H363.5L365 181.5L364 12.5H235.5L226.5 181.5ZM380 181.5L377 221.5H432.5L439 181.5L437.5 128.5H456L459 181.5L450.5 221.5H505.5L518 182L512 94H473.5V77H510.5L506 12.5H451L453 61.5H434.5L433 12.5H377.5L378.5 77H416.5V94H378.5L380 181.5ZM537.5 181.5L523.5 221.5H578L597 181.5L591.5 128.5H610.5L615.5 181.5L597 221.5H651L676 181.5L663.5 94H626L624 78.5H661L652 13.5H597.5L602.5 61.5H584.5L579 12.5H524L530 78.5H566.5L568 94H530L537.5 181.5Z" fill="black"/>
<defs>
<linearGradient id="paint0_linear_1_17" x1="296" y1="12.5" x2="296" y2="182" gradientUnits="userSpaceOnUse">
<stop stop-color="#BCB3B2"/>
<stop offset="1" stop-color="#EDE1E3"/>
</linearGradient>
<linearGradient id="paint1_linear_1_17" x1="115.75" y1="13" x2="115.75" y2="181" gradientUnits="userSpaceOnUse">
<stop stop-color="#BCB3B2"/>
<stop offset="1" stop-color="#EDE1E3"/>
</linearGradient>
<linearGradient id="paint2_linear_1_17" x1="448" y1="13" x2="448" y2="182" gradientUnits="userSpaceOnUse">
<stop stop-color="#BCB3B2"/>
<stop offset="1" stop-color="#EDE1E3"/>
</linearGradient>
<linearGradient id="paint3_linear_1_17" x1="601" y1="12" x2="601" y2="181" gradientUnits="userSpaceOnUse">
<stop stop-color="#BCB3B2"/>
<stop offset="1" stop-color="#EDE1E3"/>
</linearGradient>
</defs>
</svg>
